<svg xmlns="http://www.w3.org/2000/svg" width="700" height="700" viewBox="0 0 7 7">
  <path fill="#fd0" d="M0 0h7v7H0"/>
  <path fill="#d00" d="M0 4l3 3H0v66M1 0h6v6"/>
  <path fill="#04a" d="M3 0h4v4L3 0M0 2l5 5H3L0 4"/>
  <path fill="#f90" d="M1 0h1v2h2v2h2v2h1V5H5V3H3V1H1M0 6h1v1H0"/>
  <path fill="#638" d="M3 0h1v2h2v2h1V3H5V1H3V0M0 4h1v2h2v1H2V5H0"/>
  <path fill="#fff" d="M5 0h2v2"/>
  <path fill="#4a6" d="M5 0h1v2h1V1H5M0 1l6 6H4V6H3V5H2V4H1V3H0"/>
  <path fill="#fff" d="M0 1h1v2h2v2h2v2h1V6H4V4H2V2H0"/>
</svg>
